<svg width="18" height="18" viewBox="0 0 18 18" fill="none" xmlns="http://www.w3.org/2000/svg">
<g id="fluent-mdl2:forward" clip-path="url(#clip0_808_30)">
<path id="Vector" d="M11.5326 9.50432L5.16358 2.95908C5.11115 2.90633 5.06969 2.84371 5.04162 2.77483C5.01354 2.70596 4.9994 2.6322 5.00002 2.55783C5.00064 2.48345 5.016 2.40994 5.04521 2.34154C5.07443 2.27314 5.11692 2.21122 5.17023 2.15935C5.22353 2.10748 5.2866 2.0667 5.35577 2.03937C5.42494 2.01203 5.49884 1.99869 5.57321 2.0001C5.64757 2.00152 5.72091 2.01767 5.78899 2.04762C5.85707 2.07756 5.91854 2.12072 5.96983 2.17458L12.7198 9.11207C12.822 9.21709 12.8792 9.35781 12.8792 9.50432C12.8792 9.65084 12.822 9.79156 12.7198 9.89657L5.96983 16.8341C5.91854 16.8879 5.85708 16.9311 5.789 16.961C5.72091 16.991 5.64757 17.0071 5.57321 17.0085C5.49885 17.01 5.42494 16.9966 5.35577 16.9693C5.2866 16.9419 5.22353 16.9012 5.17023 16.8493C5.11692 16.7974 5.07443 16.7355 5.04522 16.6671C5.016 16.5987 5.00064 16.5252 5.00002 16.4508C4.9994 16.3764 5.01354 16.3027 5.04162 16.2338C5.06969 16.1649 5.11115 16.1023 5.16358 16.0496L11.5326 9.50432Z" fill="black"/>
</g>
<defs>
<clipPath id="clip0_808_30">
<rect width="18" height="18" fill="white" transform="translate(0 18) rotate(-90)"/>
</clipPath>
</defs>
</svg>
