<svg width="8" height="16" viewBox="0 0 8 16" fill="none" xmlns="http://www.w3.org/2000/svg">
<path d="M6.53258 7.99993L0.163583 1.45468C0.111146 1.40193 0.0696907 1.33931 0.0416151 1.27044C0.0135395 1.20156 -0.000598452 1.12781 1.94112e-05 1.05343C0.000637275 0.979059 0.0159982 0.905546 0.0452143 0.837148C0.0744303 0.76875 0.116921 0.706825 0.170227 0.654957C0.223534 0.603089 0.286596 0.562308 0.355768 0.534973C0.424939 0.507637 0.498845 0.494292 0.573207 0.495707C0.64757 0.497123 0.720914 0.513272 0.788994 0.543221C0.857075 0.573169 0.91854 0.616321 0.969833 0.670181L7.71983 7.60768C7.822 7.71269 7.87916 7.85342 7.87916 7.99993C7.87916 8.14644 7.822 8.28717 7.71983 8.39218L0.969833 15.3297C0.91854 15.3835 0.857075 15.4267 0.788994 15.4566C0.720914 15.4866 0.64757 15.5027 0.573207 15.5042C0.498845 15.5056 0.424939 15.4922 0.355768 15.4649C0.286596 15.4376 0.223534 15.3968 0.170227 15.3449C0.116921 15.293 0.0744303 15.2311 0.0452143 15.1627C0.0159982 15.0943 0.000637275 15.0208 1.94112e-05 14.9464C-0.000598452 14.8721 0.0135395 14.7983 0.0416151 14.7294C0.0696907 14.6605 0.111146 14.5979 0.163583 14.5452L6.53258 7.99993Z" fill="black"/>
</svg>
