<svg width="292" height="297" viewBox="0 0 292 297" fill="none" xmlns="http://www.w3.org/2000/svg">
<path d="M126.833 96.0219C125.865 95.947 124.989 95.8784 123.85 95.788C122.804 109.042 117.049 119.574 105.91 126.756C98.2801 131.677 89.7402 133.34 80.8104 132.604C71.2402 131.815 63.0128 127.87 56.2304 120.971C49.4479 114.07 46.6384 105.378 45.3605 95.788C44.2838 95.9283 43.3679 96.0468 42.2757 96.1903C42.6717 101.872 44.1445 107.177 46.4249 112.27C46.7931 113.093 47.1273 113.982 47.6874 114.665C49.6769 117.088 49.8657 119.908 49.7976 122.87C49.6027 131.157 49.7233 139.455 49.253 147.726C49.0055 152.077 48.1082 156.468 46.92 160.672C44.6396 168.73 39.1908 173.449 30.8706 174.59C25.9942 175.258 21.1394 175.136 16.3156 174.032C9.8519 172.554 5.51078 168.615 3.01998 162.496C0.708638 156.817 0.0929005 150.826 0.0898063 144.788C0.0774297 119.512 0.188819 94.2317 0.195007 68.955C0.198101 58.1333 0.0186402 47.3115 7.52343e-05 36.4898C-0.0339606 17.5907 11.4825 4.00896 30.0197 0.880942C37.8324 -0.438251 45.4874 0.0170741 53.0681 2.34359C64.9157 5.98307 72.3726 13.5739 74.8479 26.0392C76.8684 36.2153 77.1067 46.4726 77.017 56.786C76.9334 66.4882 77.0572 76.1934 77.1345 85.8956C77.1407 86.7813 77.4347 87.6826 77.6977 88.5433C78.824 92.2514 81.0796 93.9417 84.5946 93.7764C88.5861 93.5893 90.8881 91.7462 91.4141 87.7481C91.8937 84.1023 92.1134 80.3974 92.1413 76.7174C92.2403 62.9766 91.9927 49.2295 92.296 35.4949C92.5373 24.5734 96.3462 14.9492 104.62 7.55799C109.339 3.34156 115.236 1.52962 121.325 0.60962C134.07 -1.31459 145.834 1.28637 156.444 8.83976C163.245 13.6799 166.101 20.7 167.428 28.5996C169.192 39.0845 168.542 49.6661 168.629 60.2197C168.747 75.0582 168.873 89.8937 168.935 104.732C168.972 113.923 169.331 123.126 167.852 132.27C166.729 139.2 163.19 143.815 156.351 145.858C149.829 147.804 143.3 148.659 136.589 147.134C126.066 144.738 120.376 138.046 119.723 127.137C119.552 124.296 119.645 121.436 119.744 118.588C119.769 117.881 120.193 117.135 120.583 116.499C124.41 110.268 126.592 103.541 126.836 96.0281L126.833 96.0219Z" fill="url(#paint0_linear_809_394)"/>
<path d="M164.407 200.623C167.309 201.236 167.477 201.136 167.685 198.773C169.155 182.156 181.754 168.136 198.269 165.051C214.196 162.079 227.735 166.37 238.148 179.066C242.958 184.93 244.953 192.026 246.136 199.376C246.217 199.871 246.342 200.356 246.444 200.835C246.762 200.863 246.955 200.912 247.136 200.891C247.833 200.803 248.527 200.688 249.548 200.536C249.234 198.599 248.979 196.708 248.614 194.843C247.568 189.467 245.579 184.457 242.668 179.802C242.282 179.184 241.962 178.388 241.968 177.679C242.049 168.123 241.896 158.55 242.45 149.019C242.731 144.19 243.904 139.305 245.405 134.685C247.618 127.872 252.646 123.901 259.778 122.639C264.943 121.725 270.092 121.784 275.197 122.866C283.264 124.576 288.064 129.847 289.947 137.601C291.037 142.082 291.694 146.759 291.818 151.367C292.092 161.379 291.918 171.401 291.899 181.419C291.862 199.836 291.778 218.257 291.769 236.674C291.766 244.36 291.828 252.05 291.99 259.736C292.413 279.658 279.786 292.186 261.948 295.56C253.589 297.143 245.361 296.44 237.279 293.731C225.929 289.932 219.036 282.323 216.674 270.507C214.684 260.557 214.326 250.532 214.513 240.436C214.681 231.403 214.75 222.364 214.672 213.331C214.653 211.251 214.055 209.109 213.371 207.116C212.349 204.149 210.161 202.921 206.849 203.017C203.44 203.117 201.08 204.497 200.398 207.526C199.723 210.52 199.411 213.648 199.383 216.724C199.246 230.747 199.259 244.771 199.231 258.794C199.218 264.599 198.303 270.234 196.093 275.625C191.958 285.703 184.851 292.466 174.17 295.261C162.452 298.327 151.179 297.404 140.243 291.972C130.944 287.351 125.586 280.003 123.902 269.86C122.321 260.321 122.374 250.706 122.498 241.077C122.613 232.034 122.551 222.989 122.464 213.947C122.333 200.586 122.028 187.225 122 173.863C121.994 171.208 122.672 168.475 123.466 165.91C124.87 161.379 128.373 159.467 132.98 160.552C138.549 161.864 144.166 162.847 149.881 162.228C153.658 161.818 157.384 160.925 161.126 160.219C166.733 159.159 169.818 160.966 170.758 166.581C171.415 170.496 171.337 174.538 171.477 178.528C171.499 179.146 170.991 179.824 170.627 180.412C166.994 186.214 164.908 192.52 164.404 199.345C164.373 199.777 164.401 200.216 164.401 200.623H164.407Z" fill="url(#paint1_linear_809_394)"/>
<defs>
<linearGradient id="paint0_linear_809_394" x1="146" y1="0" x2="146" y2="297" gradientUnits="userSpaceOnUse">
<stop offset="0.235827" stop-color="#C1C3FF"/>
<stop offset="1" stop-color="#6D91E7"/>
</linearGradient>
<linearGradient id="paint1_linear_809_394" x1="146" y1="0" x2="146" y2="297" gradientUnits="userSpaceOnUse">
<stop offset="0.235827" stop-color="#C1C3FF"/>
<stop offset="1" stop-color="#6D91E7"/>
</linearGradient>
</defs>
</svg>
