<svg width="1728" height="1728" viewBox="0 0 1728 1728" fill="none" xmlns="http://www.w3.org/2000/svg">
<circle cx="864" cy="864" r="864" fill="#D1D2F9"/>
<path d="M757.38 1276.14C726.02 1255.7 708.352 1251.75 676.255 1265.47C648.683 1297.71 647.067 1318.85 657.041 1359.43C684.584 1406.81 700.616 1421.68 729.627 1438.44C786.445 1471.47 814.369 1473.61 861.99 1468.34C919.729 1467.01 952.714 1459.97 1013.57 1429.9C1058.36 1403.54 1072.73 1381.47 1075.48 1327.4C1080.47 1294.79 1068.43 1279.99 1032.78 1256.92C996.545 1250.65 979.359 1259.34 951.655 1286.82C916.286 1311.04 893.285 1314.97 849.18 1312.45C810.882 1307.54 790.913 1299.08 757.38 1276.14Z" fill="white" stroke="#9999FF" stroke-width="11.9751"/>
<path d="M756.823 1276.54L677.788 1393.9" stroke="#9999FF" stroke-width="11.9751"/>
<path d="M802.328 1301.69L756.823 1451.38" stroke="#9999FF" stroke-width="11.9751"/>
<path d="M863.401 1312.47V1465.75" stroke="#9999FF" stroke-width="11.9751"/>
<path d="M919.684 1304.08L963.991 1451.38" stroke="#9999FF" stroke-width="11.9751"/>
<path d="M963.991 1276.54L1047.82 1402.28" stroke="#9999FF" stroke-width="11.9751"/>
<path d="M809.271 843.971C809.271 901.186 774.936 953.194 718.992 990.979C663.06 1028.76 585.688 1052.18 500.137 1052.18C414.585 1052.18 337.214 1028.76 281.281 990.979C225.338 953.194 191.002 901.186 191.002 843.971C191.002 786.756 225.338 734.748 281.281 696.963C337.214 659.186 414.585 635.762 500.137 635.762C585.688 635.762 663.06 659.186 718.992 696.963C774.936 734.748 809.271 786.756 809.271 843.971Z" fill="white" stroke="#9999FF" stroke-width="3.59252"/>
<circle cx="501.156" cy="843.971" r="116.217" fill="#9999FF"/>
<path d="M1582.86 843.971C1582.86 901.186 1548.52 953.194 1492.58 990.979C1436.65 1028.76 1359.28 1052.18 1273.72 1052.18C1188.17 1052.18 1110.8 1028.76 1054.87 990.979C998.926 953.194 964.59 901.186 964.59 843.971C964.59 786.756 998.926 734.748 1054.87 696.963C1110.8 659.186 1188.17 635.762 1273.72 635.762C1359.28 635.762 1436.65 659.186 1492.58 696.963C1548.52 734.748 1582.86 786.756 1582.86 843.971Z" fill="white" stroke="#9999FF" stroke-width="3.59252"/>
<circle cx="1274.74" cy="843.971" r="116.217" fill="#9999FF"/>
<path d="M500.558 835.426C537.162 829.326 541.585 815.061 539.904 783.168C548.107 816.882 559.139 826.45 584.383 835.426C551.907 837.82 544.63 852.779 539.904 889.746C542.555 848.256 535.05 835.131 500.558 835.426Z" fill="url(#paint0_linear_540_1292)" stroke="#D1D2F9" stroke-width="5.98753"/>
<path d="M1275.34 835.426C1311.95 829.326 1316.37 815.061 1314.69 783.168C1322.89 816.882 1333.92 826.45 1359.17 835.426C1326.69 837.82 1319.42 852.779 1314.69 889.746C1317.34 848.256 1309.83 835.131 1275.34 835.426Z" fill="url(#paint1_linear_540_1292)" stroke="#D1D2F9" stroke-width="5.98753"/>
<ellipse cx="1235.83" cy="1160.38" rx="155.676" ry="94.6029" fill="url(#paint2_radial_540_1292)"/>
<ellipse cx="535.285" cy="1160.38" rx="155.676" ry="94.6029" fill="url(#paint3_radial_540_1292)"/>
<path d="M1314.79 511.669C1416.54 529.776 1451.5 557.661 1467.68 644.375" stroke="#9999FF" stroke-width="20"/>
<path d="M205.235 624.615C258.985 536.352 297.648 513.868 384.328 530.221" stroke="#9999FF" stroke-width="20"/>
<defs>
<linearGradient id="paint0_linear_540_1292" x1="542.47" y1="783.168" x2="542.47" y2="889.746" gradientUnits="userSpaceOnUse">
<stop offset="0.463542" stop-color="#E9E9FF"/>
<stop offset="0.864583" stop-color="#99B6FF"/>
</linearGradient>
<linearGradient id="paint1_linear_540_1292" x1="1317.26" y1="783.168" x2="1317.26" y2="889.746" gradientUnits="userSpaceOnUse">
<stop offset="0.463542" stop-color="#E9E9FF"/>
<stop offset="0.864583" stop-color="#99B6FF"/>
</linearGradient>
<radialGradient id="paint2_radial_540_1292" cx="0" cy="0" r="1" gradientUnits="userSpaceOnUse" gradientTransform="translate(1235.83 1160.38) rotate(90) scale(94.6029 155.676)">
<stop stop-color="#9999FF"/>
<stop offset="1" stop-color="#D1D2F9"/>
</radialGradient>
<radialGradient id="paint3_radial_540_1292" cx="0" cy="0" r="1" gradientUnits="userSpaceOnUse" gradientTransform="translate(535.285 1160.38) rotate(90) scale(94.6029 155.676)">
<stop stop-color="#9999FF"/>
<stop offset="1" stop-color="#D1D2F9"/>
</radialGradient>
</defs>
</svg>
