<svg width="269" height="269" viewBox="0 0 269 269" fill="none" xmlns="http://www.w3.org/2000/svg">
<circle cx="134.5" cy="134.5" r="134.5" fill="url(#paint0_linear_719_2442)"/>
<path d="M122.291 133.05C122.291 140.524 117.806 147.326 110.48 152.274C103.155 157.221 93.0191 160.291 81.8074 160.291C70.5956 160.291 60.4594 157.221 53.135 152.274C45.8088 147.326 41.324 140.524 41.324 133.05C41.324 125.577 45.8088 118.775 53.135 113.826C60.4594 108.879 70.5956 105.81 81.8074 105.81C93.0191 105.81 103.155 108.879 110.48 113.826C117.806 118.775 122.291 125.577 122.291 133.05Z" fill="white" stroke="#9999FF" stroke-width="0.628505"/>
<circle cx="81.9416" cy="133.05" r="15.2489" fill="#9999FF"/>
<path d="M122.513 132.062C122.407 132.027 122.282 131.986 122.141 131.94C121.594 131.764 120.79 131.512 119.755 131.21C117.684 130.607 114.69 129.802 110.99 128.998C103.592 127.39 93.3697 125.78 82.0752 125.78C70.7807 125.78 60.5581 127.39 53.1602 128.998C49.4607 129.802 46.4662 130.607 44.3957 131.21C43.3604 131.512 42.556 131.764 42.0098 131.94C41.8499 131.992 41.712 132.037 41.597 132.075C41.7692 124.775 46.2206 118.142 53.4028 113.291C60.7272 108.344 70.8635 105.274 82.0752 105.274C104.283 105.274 120.936 117.524 122.513 132.062Z" fill="url(#paint1_linear_719_2442)" stroke="#9999FF" stroke-width="0.628505"/>
<path d="M223.794 133.05C223.794 140.524 219.31 147.326 211.983 152.274C204.659 157.221 194.523 160.291 183.311 160.291C172.099 160.291 161.963 157.221 154.639 152.274C147.312 147.326 142.828 140.524 142.828 133.05C142.828 125.577 147.312 118.775 154.639 113.826C161.963 108.879 172.099 105.81 183.311 105.81C194.523 105.81 204.659 108.879 211.983 113.826C219.31 118.775 223.794 125.577 223.794 133.05Z" fill="white" stroke="#9999FF" stroke-width="0.628505"/>
<path d="M223.794 133.05C223.794 140.524 219.31 147.326 211.983 152.274C204.659 157.221 194.523 160.291 183.311 160.291C172.099 160.291 161.963 157.221 154.639 152.274C147.312 147.326 142.828 140.524 142.828 133.05C142.828 125.577 147.312 118.775 154.639 113.826C161.963 108.879 172.099 105.81 183.311 105.81C194.523 105.81 204.659 108.879 211.983 113.826C219.31 118.775 223.794 125.577 223.794 133.05Z" fill="white" stroke="#9999FF" stroke-width="0.628505"/>
<circle cx="183.445" cy="133.05" r="15.2489" fill="#9999FF"/>
<path d="M223.749 131.591C223.643 131.556 223.518 131.515 223.376 131.469C222.83 131.293 222.026 131.041 220.991 130.739C218.92 130.135 215.926 129.331 212.226 128.527C204.828 126.918 194.606 125.309 183.311 125.309C172.017 125.309 161.794 126.918 154.396 128.527C150.697 129.331 147.702 130.135 145.632 130.739C144.596 131.041 143.792 131.293 143.246 131.469C143.086 131.521 142.948 131.566 142.833 131.604C143.005 124.304 147.456 117.671 154.639 112.82C161.963 107.873 172.099 104.803 183.311 104.803C205.519 104.803 222.172 117.052 223.749 131.591Z" fill="url(#paint2_linear_719_2442)" stroke="#9999FF" stroke-width="0.628505"/>
<path d="M81.8628 132.244C86.6657 131.443 87.2461 129.571 87.0255 125.387C88.1018 129.81 89.5493 131.066 92.8616 132.244C88.6005 132.558 87.6456 134.52 87.0255 139.371C87.3734 133.927 86.3886 132.205 81.8628 132.244Z" fill="url(#paint3_linear_719_2442)" stroke="#D1D2F9" stroke-width="0.785631"/>
<path d="M183.523 132.244C188.326 131.443 188.906 129.571 188.686 125.387C189.762 129.81 191.21 131.066 194.522 132.244C190.261 132.558 189.306 134.52 188.686 139.371C189.034 133.927 188.049 132.205 183.523 132.244Z" fill="url(#paint4_linear_719_2442)" stroke="#D1D2F9" stroke-width="0.785631"/>
<path d="M155.398 187.137C143.142 184.623 117.059 194.994 109.831 209.607" stroke="#9999FF" stroke-width="3.14252"/>
<path d="M168.418 64.5185C174.14 75.6447 198.567 89.4717 214.484 85.9465" stroke="#9999FF" stroke-width="3.14252"/>
<path d="M53.8188 86.3969C66.0747 88.911 92.1576 78.5406 99.3854 63.9277" stroke="#9999FF" stroke-width="3.14252"/>
<defs>
<linearGradient id="paint0_linear_719_2442" x1="134.5" y1="0" x2="134.5" y2="269" gradientUnits="userSpaceOnUse">
<stop offset="0.463542" stop-color="#E9E9FF"/>
<stop offset="0.864583" stop-color="#99B6FF"/>
</linearGradient>
<linearGradient id="paint1_linear_719_2442" x1="82.0752" y1="104.96" x2="82.0752" y2="132.515" gradientUnits="userSpaceOnUse">
<stop offset="0.463542" stop-color="#E9E9FF"/>
<stop offset="0.864583" stop-color="#99B6FF"/>
</linearGradient>
<linearGradient id="paint2_linear_719_2442" x1="183.311" y1="104.489" x2="183.311" y2="132.044" gradientUnits="userSpaceOnUse">
<stop offset="0.463542" stop-color="#E9E9FF"/>
<stop offset="0.864583" stop-color="#99B6FF"/>
</linearGradient>
<linearGradient id="paint3_linear_719_2442" x1="87.3622" y1="125.387" x2="87.3622" y2="139.371" gradientUnits="userSpaceOnUse">
<stop offset="0.463542" stop-color="#E9E9FF"/>
<stop offset="0.864583" stop-color="#99B6FF"/>
</linearGradient>
<linearGradient id="paint4_linear_719_2442" x1="189.023" y1="125.387" x2="189.023" y2="139.371" gradientUnits="userSpaceOnUse">
<stop offset="0.463542" stop-color="#E9E9FF"/>
<stop offset="0.864583" stop-color="#99B6FF"/>
</linearGradient>
</defs>
</svg>
