<svg width="18" height="18" viewBox="0 0 18 18" fill="none" xmlns="http://www.w3.org/2000/svg">
<path d="M8.99983 14.7779L15.5451 8.40894C15.5978 8.35651 15.6604 8.31505 15.7293 8.28698C15.7982 8.2589 15.8719 8.24476 15.9463 8.24538C16.0207 8.246 16.0942 8.26136 16.1626 8.29058C16.231 8.31979 16.2929 8.36228 16.3448 8.41559C16.3967 8.46889 16.4374 8.53196 16.4648 8.60113C16.4921 8.6703 16.5055 8.74421 16.504 8.81857C16.5026 8.89293 16.4865 8.96628 16.4565 9.03436C16.4266 9.10244 16.3834 9.1639 16.3296 9.21519L9.39208 15.9652C9.28706 16.0674 9.14634 16.1245 8.99983 16.1245C8.85331 16.1245 8.71259 16.0674 8.60758 15.9652L1.67007 9.21519C1.61621 9.1639 1.57306 9.10244 1.54311 9.03436C1.51317 8.96628 1.49702 8.89293 1.4956 8.81857C1.49419 8.74421 1.50753 8.6703 1.53487 8.60113C1.5622 8.53196 1.60298 8.4689 1.65485 8.41559C1.70672 8.36228 1.76864 8.31979 1.83704 8.29058C1.90544 8.26136 1.97895 8.246 2.05333 8.24538C2.1277 8.24476 2.20146 8.2589 2.27033 8.28698C2.33921 8.31505 2.40183 8.35651 2.45457 8.40894L8.99983 14.7779Z" fill="black"/>
</svg>
